<svg width="82" height="47" viewBox="0 0 82 47" fill="none" xmlns="http://www.w3.org/2000/svg">
<path d="M15.0469 13.082V19.8438C14.7812 20.1641 14.3711 20.5117 13.8164 20.8867C13.2617 21.2539 12.5469 21.5703 11.6719 21.8359C10.7969 22.1016 9.73828 22.2344 8.49609 22.2344C7.39453 22.2344 6.39062 22.0547 5.48438 21.6953C4.57812 21.3281 3.79688 20.793 3.14062 20.0898C2.49219 19.3867 1.99219 18.5273 1.64062 17.5117C1.28906 16.4883 1.11328 15.3203 1.11328 14.0078V12.9414C1.11328 11.6289 1.28125 10.4609 1.61719 9.4375C1.96094 8.41406 2.44922 7.55078 3.08203 6.84766C3.71484 6.14453 4.46875 5.60937 5.34375 5.24219C6.21875 4.875 7.19141 4.69141 8.26172 4.69141C9.74609 4.69141 10.9648 4.93359 11.918 5.41797C12.8711 5.89453 13.5977 6.55859 14.0977 7.41016C14.6055 8.25391 14.918 9.22266 15.0352 10.3164H11.625C11.5391 9.73828 11.375 9.23438 11.1328 8.80469C10.8906 8.375 10.543 8.03906 10.0898 7.79688C9.64453 7.55469 9.06641 7.43359 8.35547 7.43359C7.76953 7.43359 7.24609 7.55469 6.78516 7.79688C6.33203 8.03125 5.94922 8.37891 5.63672 8.83984C5.32422 9.30078 5.08594 9.87109 4.92188 10.5508C4.75781 11.2305 4.67578 12.0195 4.67578 12.918V14.0078C4.67578 14.8984 4.76172 15.6875 4.93359 16.375C5.10547 17.0547 5.35938 17.6289 5.69531 18.0977C6.03906 18.5586 6.46094 18.9062 6.96094 19.1406C7.46094 19.375 8.04297 19.4922 8.70703 19.4922C9.26172 19.4922 9.72266 19.4453 10.0898 19.3516C10.4648 19.2578 10.7656 19.1445 10.9922 19.0117C11.2266 18.8711 11.4062 18.7383 11.5312 18.6133V15.5898H8.32031V13.082H15.0469ZM20.2266 4.9375L23.7891 12.7188L27.3516 4.9375H31.1836L25.5703 15.7891V22H22.0078V15.7891L16.3828 4.9375H20.2266ZM36.4805 4.9375V22H32.9766V4.9375H36.4805ZM52.1133 19.2578V22H40.0195V19.2578H52.1133ZM51.9375 6.89453L41.5781 22H39.1055V19.9844L49.5469 4.9375H51.9375V6.89453ZM50.7305 4.9375V7.69141H39.1172V4.9375H50.7305ZM65.8008 19.2578V22H56.7188V19.2578H65.8008ZM57.8672 4.9375V22H54.3516V4.9375H57.8672ZM64.6172 11.8867V14.5586H56.7188V11.8867H64.6172ZM65.7891 4.9375V7.69141H56.7188V4.9375H65.7891ZM67.8516 4.9375H74.2148C75.5195 4.9375 76.6406 5.13281 77.5781 5.52344C78.5234 5.91406 79.25 6.49219 79.7578 7.25781C80.2656 8.02344 80.5195 8.96484 80.5195 10.082C80.5195 10.9961 80.3633 11.7812 80.0508 12.4375C79.7461 13.0859 79.3125 13.6289 78.75 14.0664C78.1953 14.4961 77.543 14.8398 76.793 15.0977L75.6797 15.6836H70.1484L70.125 12.9414H74.2383C74.8555 12.9414 75.3672 12.832 75.7734 12.6133C76.1797 12.3945 76.4844 12.0898 76.6875 11.6992C76.8984 11.3086 77.0039 10.8555 77.0039 10.3398C77.0039 9.79297 76.9023 9.32031 76.6992 8.92188C76.4961 8.52344 76.1875 8.21875 75.7734 8.00781C75.3594 7.79688 74.8398 7.69141 74.2148 7.69141H71.3672V22H67.8516V4.9375ZM77.3906 22L73.5 14.3945L77.2148 14.3711L81.1523 21.8359V22H77.3906Z" fill="white"/>
<path d="M6.10156 31.625V43H3.76562V31.625H6.10156ZM9.60156 31.625V33.4609H0.320312V31.625H9.60156ZM20.0625 37.0469V37.5859C20.0625 38.4505 19.9453 39.2266 19.7109 39.9141C19.4766 40.6016 19.1458 41.1875 18.7188 41.6719C18.2917 42.151 17.7812 42.5182 17.1875 42.7734C16.599 43.0286 15.9453 43.1562 15.2266 43.1562C14.513 43.1562 13.8594 43.0286 13.2656 42.7734C12.6771 42.5182 12.1667 42.151 11.7344 41.6719C11.3021 41.1875 10.9661 40.6016 10.7266 39.9141C10.4922 39.2266 10.375 38.4505 10.375 37.5859V37.0469C10.375 36.1771 10.4922 35.401 10.7266 34.7188C10.9609 34.0312 11.2917 33.4453 11.7188 32.9609C12.151 32.4766 12.6615 32.1068 13.25 31.8516C13.8438 31.5964 14.4974 31.4688 15.2109 31.4688C15.9297 31.4688 16.5833 31.5964 17.1719 31.8516C17.7656 32.1068 18.276 32.4766 18.7031 32.9609C19.1354 33.4453 19.4688 34.0312 19.7031 34.7188C19.9427 35.401 20.0625 36.1771 20.0625 37.0469ZM17.6953 37.5859V37.0312C17.6953 36.4271 17.6406 35.8958 17.5312 35.4375C17.4219 34.9792 17.2604 34.5938 17.0469 34.2812C16.8333 33.9688 16.5729 33.7344 16.2656 33.5781C15.9583 33.4167 15.6068 33.3359 15.2109 33.3359C14.8151 33.3359 14.4635 33.4167 14.1562 33.5781C13.8542 33.7344 13.5964 33.9688 13.3828 34.2812C13.1745 34.5938 13.0156 34.9792 12.9062 35.4375C12.7969 35.8958 12.7422 36.4271 12.7422 37.0312V37.5859C12.7422 38.1849 12.7969 38.7161 12.9062 39.1797C13.0156 39.638 13.1771 40.026 13.3906 40.3438C13.6042 40.6562 13.8646 40.8932 14.1719 41.0547C14.4792 41.2161 14.8307 41.2969 15.2266 41.2969C15.6224 41.2969 15.974 41.2161 16.2812 41.0547C16.5885 40.8932 16.8464 40.6562 17.0547 40.3438C17.263 40.026 17.4219 39.638 17.5312 39.1797C17.6406 38.7161 17.6953 38.1849 17.6953 37.5859ZM25.2422 43H22.7656L22.7812 41.1719H25.2422C25.8568 41.1719 26.375 41.0339 26.7969 40.7578C27.2188 40.4766 27.5365 40.0677 27.75 39.5312C27.9688 38.9948 28.0781 38.3464 28.0781 37.5859V37.0312C28.0781 36.4479 28.0156 35.9349 27.8906 35.4922C27.7708 35.0495 27.5911 34.6771 27.3516 34.375C27.112 34.0729 26.8177 33.8464 26.4688 33.6953C26.1198 33.5391 25.7188 33.4609 25.2656 33.4609H22.7188V31.625H25.2656C26.026 31.625 26.7214 31.7552 27.3516 32.0156C27.987 32.2708 28.5365 32.638 29 33.1172C29.4635 33.5964 29.8203 34.1693 30.0703 34.8359C30.3255 35.4974 30.4531 36.2344 30.4531 37.0469V37.5859C30.4531 38.3932 30.3255 39.1302 30.0703 39.7969C29.8203 40.4635 29.4635 41.0365 29 41.5156C28.5417 41.9896 27.9922 42.3568 27.3516 42.6172C26.7161 42.8724 26.013 43 25.2422 43ZM24.0938 31.625V43H21.75V31.625H24.0938ZM41.5 37.0469V37.5859C41.5 38.4505 41.3828 39.2266 41.1484 39.9141C40.9141 40.6016 40.5833 41.1875 40.1562 41.6719C39.7292 42.151 39.2188 42.5182 38.625 42.7734C38.0365 43.0286 37.3828 43.1562 36.6641 43.1562C35.9505 43.1562 35.2969 43.0286 34.7031 42.7734C34.1146 42.5182 33.6042 42.151 33.1719 41.6719C32.7396 41.1875 32.4036 40.6016 32.1641 39.9141C31.9297 39.2266 31.8125 38.4505 31.8125 37.5859V37.0469C31.8125 36.1771 31.9297 35.401 32.1641 34.7188C32.3984 34.0312 32.7292 33.4453 33.1562 32.9609C33.5885 32.4766 34.099 32.1068 34.6875 31.8516C35.2812 31.5964 35.9349 31.4688 36.6484 31.4688C37.3672 31.4688 38.0208 31.5964 38.6094 31.8516C39.2031 32.1068 39.7135 32.4766 40.1406 32.9609C40.5729 33.4453 40.9062 34.0312 41.1406 34.7188C41.3802 35.401 41.5 36.1771 41.5 37.0469ZM39.1328 37.5859V37.0312C39.1328 36.4271 39.0781 35.8958 38.9688 35.4375C38.8594 34.9792 38.6979 34.5938 38.4844 34.2812C38.2708 33.9688 38.0104 33.7344 37.7031 33.5781C37.3958 33.4167 37.0443 33.3359 36.6484 33.3359C36.2526 33.3359 35.901 33.4167 35.5938 33.5781C35.2917 33.7344 35.0339 33.9688 34.8203 34.2812C34.612 34.5938 34.4531 34.9792 34.3438 35.4375C34.2344 35.8958 34.1797 36.4271 34.1797 37.0312V37.5859C34.1797 38.1849 34.2344 38.7161 34.3438 39.1797C34.4531 39.638 34.6146 40.026 34.8281 40.3438C35.0417 40.6562 35.3021 40.8932 35.6094 41.0547C35.9167 41.2161 36.2682 41.2969 36.6641 41.2969C37.0599 41.2969 37.4115 41.2161 37.7188 41.0547C38.026 40.8932 38.2839 40.6562 38.4922 40.3438C38.7005 40.026 38.8594 39.638 38.9688 39.1797C39.0781 38.7161 39.1328 38.1849 39.1328 37.5859ZM51.7969 33.5703L48.7031 43H46.2109L50.4375 31.625H52.0234L51.7969 33.5703ZM54.3672 43L51.2656 33.5703L51.0156 31.625H52.6172L56.8672 43H54.3672ZM54.2266 38.7656V40.6016H48.2188V38.7656H54.2266ZM62.3516 38.9453H59.4531V37.1172H62.3516C62.7995 37.1172 63.1641 37.0443 63.4453 36.8984C63.7266 36.7474 63.9323 36.5391 64.0625 36.2734C64.1927 36.0078 64.2578 35.7083 64.2578 35.375C64.2578 35.0365 64.1927 34.7214 64.0625 34.4297C63.9323 34.138 63.7266 33.9036 63.4453 33.7266C63.1641 33.5495 62.7995 33.4609 62.3516 33.4609H60.2656V43H57.9219V31.625H62.3516C63.2422 31.625 64.0052 31.7865 64.6406 32.1094C65.2812 32.4271 65.7708 32.8672 66.1094 33.4297C66.4479 33.9922 66.6172 34.6354 66.6172 35.3594C66.6172 36.0938 66.4479 36.7292 66.1094 37.2656C65.7708 37.8021 65.2812 38.2161 64.6406 38.5078C64.0052 38.7995 63.2422 38.9453 62.3516 38.9453ZM72.6641 38.9453H69.7656V37.1172H72.6641C73.112 37.1172 73.4766 37.0443 73.7578 36.8984C74.0391 36.7474 74.2448 36.5391 74.375 36.2734C74.5052 36.0078 74.5703 35.7083 74.5703 35.375C74.5703 35.0365 74.5052 34.7214 74.375 34.4297C74.2448 34.138 74.0391 33.9036 73.7578 33.7266C73.4766 33.5495 73.112 33.4609 72.6641 33.4609H70.5781V43H68.2344V31.625H72.6641C73.5547 31.625 74.3177 31.7865 74.9531 32.1094C75.5938 32.4271 76.0833 32.8672 76.4219 33.4297C76.7604 33.9922 76.9297 34.6354 76.9297 35.3594C76.9297 36.0938 76.7604 36.7292 76.4219 37.2656C76.0833 37.8021 75.5938 38.2161 74.9531 38.5078C74.3177 38.7995 73.5547 38.9453 72.6641 38.9453Z" fill="#F0E3CA"/>
</svg>
